<svg width="21" height="21" viewBox="0 0 21 21" fill="none" xmlns="http://www.w3.org/2000/svg">
<rect x="1.4707" y="1.12793" width="19" height="19" rx="2.5" fill="white" stroke="#C3CAD9"/>
<path d="M15.383 6.72834L15.3829 6.72836L8.97358 13.1377L6.55985 10.724C6.55984 10.724 6.55983 10.724 6.55983 10.724C6.30353 10.4676 5.88797 10.4677 5.63167 10.724C5.37537 10.9803 5.37539 11.3958 5.63166 11.6521L5.63168 11.6521L8.50953 14.53C8.76575 14.7862 9.18139 14.7863 9.43768 14.53L9.26091 14.3532L9.43769 14.53L16.3111 7.65651L16.3111 7.65649C16.5674 7.40019 16.5674 6.98467 16.3111 6.72837C16.0548 6.47204 15.6393 6.47208 15.383 6.72834Z" fill="#C3CAD9" stroke="#C3CAD9" stroke-width="0.5"/>
</svg>
