<svg width="15" height="13" viewBox="0 0 15 13" fill="none" xmlns="http://www.w3.org/2000/svg">
<path d="M10.7792 0.919922C10.0416 0.919922 9.36533 1.15366 8.76926 1.61465C8.1978 2.0566 7.81733 2.61951 7.59334 3.02884C7.36934 2.61949 6.98887 2.0566 6.41741 1.61465C5.82134 1.15366 5.1451 0.919922 4.40749 0.919922C2.34912 0.919922 0.796875 2.60356 0.796875 4.83622C0.796875 7.24828 2.73341 8.89857 5.66508 11.3969C6.16292 11.8212 6.72721 12.3021 7.31372 12.8149C7.39103 12.8826 7.49033 12.9199 7.59334 12.9199C7.69634 12.9199 7.79564 12.8826 7.87295 12.815C8.45951 12.302 9.02378 11.8211 9.52191 11.3966C12.4533 8.89857 14.3898 7.24828 14.3898 4.83622C14.3898 2.60356 12.8375 0.919922 10.7792 0.919922Z" fill="#C3CAD9"/>
</svg>
