<svg width="19" height="18" viewBox="0 0 19 18" fill="none" xmlns="http://www.w3.org/2000/svg">
<path d="M14.6202 17.0988L9.70027 14.0201L4.78038 17.0987C4.60165 17.212 4.37109 17.2033 4.19898 17.0784C4.02736 16.954 3.94864 16.7377 4.00043 16.532L5.40798 10.9012L1.01211 7.17419C0.849598 7.0381 0.786128 6.81669 0.851644 6.61512C0.917159 6.41303 1.09894 6.27135 1.31019 6.25662L7.04764 5.85597L9.21788 0.472992C9.37734 0.0799662 10.0232 0.0799662 10.1827 0.472992L12.3529 5.85597L18.0904 6.25662C18.3016 6.27135 18.4834 6.41303 18.5489 6.61512C18.6144 6.81669 18.5509 7.0381 18.3884 7.17419L13.9925 10.9013L15.4001 16.5321C15.4519 16.7378 15.3732 16.9541 15.2015 17.0785C15.0259 17.2061 14.796 17.2089 14.6202 17.0988Z" fill="#C3CAD9"/>
</svg>
