<svg width="13" height="15" viewBox="0 0 13 15" fill="none" xmlns="http://www.w3.org/2000/svg">
<path d="M6.26465 1.6562C5.59062 1.6562 5.03554 1.88619 4.55863 2.3631C4.0816 2.84013 3.85151 3.39532 3.85151 4.06912C3.85151 4.74314 4.0816 5.29832 4.55861 5.77523C5.03576 6.25217 5.59086 6.48226 6.26465 6.48226C6.93857 6.48226 7.49376 6.25227 7.97077 5.77526C7.97078 5.77525 7.97078 5.77525 7.97078 5.77525M6.26465 1.6562L8.06036 2.27353C8.56101 2.77428 8.80448 3.36169 8.80448 4.06912C8.80448 4.77677 8.56101 5.36407 8.06036 5.86482L7.97078 5.77525M6.26465 1.6562C6.93857 1.6562 7.49376 1.88619 7.97077 2.36309M6.26465 1.6562L7.97077 2.36309M7.97078 5.77525C8.44771 5.29822 8.6778 4.74313 8.6778 4.06912C8.6778 3.39532 8.4477 2.84012 7.97077 2.36309M7.97078 5.77525L7.97077 2.36309M8.72745 6.53181L8.72746 6.5318C9.40356 5.8556 9.74778 5.02505 9.74778 4.06912C9.74778 3.11352 9.40367 2.28286 8.72735 1.60644L8.72733 1.60642C8.05101 0.930322 7.22036 0.586211 6.26465 0.586211C5.30873 0.586211 4.47818 0.930322 3.80196 1.60654C3.12575 2.28275 2.78152 3.11341 2.78152 4.06912C2.78152 5.02505 3.12575 5.85571 3.80196 6.53192L3.80198 6.53194C4.47839 7.20802 5.30904 7.55225 6.26465 7.55225C7.22047 7.55225 8.05113 7.20813 8.72745 6.53181Z" fill="white" stroke="white" stroke-width="0.25336"/>
<path d="M12.1489 10.5247L12.1489 10.5247C12.2056 10.8413 12.2443 11.1421 12.2635 11.4188M12.1489 10.5247L12.2635 11.4188M12.1489 10.5247C12.0915 10.2047 12.0174 9.90136 11.9283 9.62315L11.9283 9.62313M12.1489 10.5247L11.9283 9.62313M12.2635 11.4188C12.2824 11.6873 12.2919 11.9672 12.292 12.2507M12.2635 11.4188L12.292 12.2507M11.9283 9.62313C11.8354 9.33315 11.7095 9.04724 11.5538 8.77355C11.3914 8.48761 11.1995 8.23686 10.9825 8.02939C10.753 7.80979 10.4736 7.63476 10.1533 7.50782L10.1532 7.50779M11.9283 9.62313L10.1532 7.50779M10.1532 7.50779C9.83134 7.38046 9.47672 7.31679 9.10019 7.31679C8.91736 7.31679 8.75208 7.39513 8.48556 7.56865L8.48548 7.5687M10.1532 7.50779L8.48548 7.5687M8.48548 7.5687C8.32236 7.67508 8.13144 7.79819 7.9182 7.93443L7.9864 8.04118L7.91833 7.93435C7.7481 8.04281 7.51179 8.14781 7.21218 8.24458L7.21211 8.2446M8.48548 7.5687L7.21211 8.2446M7.21211 8.2446C6.92608 8.33716 6.63665 8.38379 6.35177 8.38379C6.06711 8.38379 5.77767 8.33716 5.49141 8.2446L5.49137 8.24458M7.21211 8.2446L5.49137 8.24458M5.49137 8.24458C5.19208 8.14791 4.95573 8.04294 4.78588 7.93454C4.57465 7.79956 4.3836 7.67644 4.21802 7.56857C3.95169 7.39503 3.7864 7.31668 3.60356 7.31668C3.22691 7.31668 2.87238 7.38047 2.55064 7.50791M5.49137 8.24458L1.72123 8.0295M1.72123 8.0295L1.72124 8.0295C1.95097 7.80968 2.23053 7.63464 2.55064 7.50791M1.72123 8.0295C1.50433 8.23705 1.31241 8.48768 1.15007 8.77355L1.72123 8.0295ZM2.55064 7.50791L2.59726 7.62569L2.55062 7.50792C2.55062 7.50791 2.55063 7.50791 2.55064 7.50791ZM1.13897 14.0932L1.13893 14.0932C0.653884 13.6312 0.412382 13.0071 0.412382 12.2508C0.412382 11.9682 0.421829 11.6884 0.440539 11.4192L1.13897 14.0932ZM1.13897 14.0932C1.61676 14.5479 2.24573 14.774 2.99723 14.774H9.70716C10.4585 14.774 11.0874 14.5479 11.5653 14.0932L11.5653 14.0932M1.13897 14.0932L11.5653 14.0932M11.5653 14.0932C12.0505 13.6315 12.292 13.0071 12.292 12.2507V12.2507M11.5653 14.0932L12.292 12.2507M10.8276 13.318L10.8276 13.318C11.0884 13.0699 11.2219 12.7274 11.222 12.2509C11.2219 11.9917 11.2133 11.737 11.1962 11.4936L11.1956 11.4847H11.1956C11.1789 11.2499 11.1454 10.9906 11.0958 10.7136C11.0465 10.4387 10.9836 10.1816 10.9093 9.9494C10.8392 9.73027 10.743 9.51236 10.6235 9.30222L10.6235 9.30217C10.5108 9.10373 10.3824 8.93604 10.2428 8.80252L10.3304 8.71098L10.2428 8.80252C10.1163 8.68145 9.95433 8.57987 9.75944 8.50271L10.8276 13.318ZM10.8276 13.318C10.5592 13.5735 10.1984 13.704 9.70705 13.704H2.99723C2.50577 13.704 2.14502 13.5735 1.87669 13.3181C1.61589 13.0699 1.48237 12.7273 1.48237 12.2508C1.48237 11.9925 1.49089 11.7376 1.5079 11.4932L1.5079 11.4931M10.8276 13.318L1.5079 11.4931M1.5079 11.4931C1.52433 11.2556 1.55802 10.9935 1.60827 10.7138L1.60827 10.7138C1.65771 10.4385 1.72045 10.1813 1.79465 9.94952C1.86491 9.73014 1.96094 9.51232 2.08036 9.30205M1.5079 11.4931L2.08036 9.30205M2.08036 9.30205C2.1931 9.10383 2.32149 8.93612 2.46107 8.80249L2.46108 8.80248C2.58758 8.68136 2.7495 8.57988 2.94455 8.5027L2.94455 8.5027C3.11228 8.43631 3.30201 8.39752 3.51041 8.38865C3.5379 8.40437 3.57799 8.42853 3.63388 8.46497L3.63391 8.46499C3.80216 8.57463 3.99598 8.69966 4.21018 8.83646L4.21026 8.83651C4.4631 8.99771 4.78439 9.14063 5.16239 9.26265C5.5539 9.38924 5.95401 9.45377 6.35188 9.45377C6.74975 9.45377 7.14999 9.38924 7.5413 9.26275M2.08036 9.30205L7.5413 9.26275M7.5413 9.26275C7.5413 9.26275 7.5413 9.26275 7.54129 9.26275L7.50234 9.14221L7.5413 9.26275ZM7.5413 9.26275C7.91958 9.14052 8.24076 8.99772 8.49392 8.8363L8.49404 8.83622C8.71316 8.69617 8.90159 8.57475 9.06989 8.46496M7.5413 9.26275L9.06989 8.46496M9.06989 8.46496C9.12583 8.42856 9.16592 8.40437 9.19338 8.38865C9.40185 8.39752 9.59157 8.43631 9.7594 8.50269L9.06989 8.46496ZM0.77563 9.6233C0.686674 9.90146 0.612575 10.2047 0.555144 10.5247L1.15006 8.77356C0.994619 9.04719 0.868561 9.333 0.775641 9.62326L0.77563 9.6233ZM0.55514 10.5247C0.498322 10.8409 0.459724 11.1417 0.440543 11.4191L0.55514 10.5247Z" fill="white" stroke="white" stroke-width="0.25336"/>
</svg>
