<svg width="12" height="13" viewBox="0 0 12 13" fill="none" xmlns="http://www.w3.org/2000/svg">
<path d="M5.8845 1.24268C5.30166 1.24268 4.82134 1.4417 4.40896 1.85408C3.99647 2.26657 3.79737 2.74698 3.79737 3.32962C3.79737 3.91245 3.99647 4.39286 4.40894 4.80524L5.8845 1.24268ZM5.8845 1.24268C6.46725 1.24268 6.94765 1.44169 7.36013 1.85407M5.8845 1.24268L7.36013 1.85407M7.36013 1.85407C7.77253 2.26656 7.97163 2.74698 7.97163 3.32962M7.36013 1.85407L7.97163 3.32962M7.97163 3.32962C7.97163 3.91245 7.77253 4.39277 7.36014 4.80526M7.97163 3.32962L7.36014 4.80526M7.36014 4.80526C7.36013 4.80526 7.36013 4.80526 7.36013 4.80526M7.36014 4.80526L7.36013 4.80526M7.36013 4.80526C6.94765 5.21774 6.46725 5.41675 5.8845 5.41675C5.30186 5.41675 4.82154 5.21766 4.40895 4.80525L7.36013 4.80526ZM7.99888 5.44391L7.99888 5.4439C8.57939 4.8633 8.87486 4.15039 8.87486 3.32962C8.87486 2.50913 8.57949 1.79613 7.99879 1.21535L7.99878 1.21533C7.41808 0.634821 6.70508 0.339453 5.8845 0.339453C5.06373 0.339453 4.35082 0.634821 3.77021 1.21543C3.18961 1.79604 2.89414 2.50904 2.89414 3.32962C2.89414 4.15039 3.1896 4.86339 3.77021 5.444L3.77023 5.44402C4.35101 6.02451 5.064 6.31998 5.8845 6.31998C6.70517 6.31998 7.41818 6.02461 7.99888 5.44391Z" fill="#3F3F3F" stroke="#3F3F3F" stroke-width="0.2"/>
<path d="M10.9428 8.89041L10.9428 8.89045C10.9916 9.16275 11.0249 9.42143 11.0414 9.65942M10.9428 8.89041L11.0414 9.65942M10.9428 8.89041C10.8934 8.61523 10.8297 8.35437 10.7531 8.11522L10.7531 8.1152M10.9428 8.89041L10.7531 8.1152M11.0414 9.65942C11.0576 9.89036 11.0658 10.1311 11.0659 10.3751V10.3751C11.0659 11.0245 10.8587 11.5596 10.4429 11.9552L10.374 11.8828M11.0414 9.65942L10.374 11.8828M10.374 11.8828L10.4429 11.9552C10.0334 12.3448 9.49413 12.5389 8.84908 12.5389H3.07092C2.42569 12.5389 1.88644 12.3449 1.47697 11.9552M10.374 11.8828L1.47697 11.9552M10.7531 8.1152C10.6733 7.8661 10.5651 7.62047 10.4314 7.38531C10.2919 7.13976 10.1271 6.92454 9.94103 6.74655C9.74432 6.55834 9.50471 6.40823 9.22989 6.29931L9.22983 6.29929M10.7531 8.1152L9.22983 6.29929M9.22983 6.29929C8.95384 6.1901 8.64961 6.13544 8.32639 6.13544C8.17187 6.13544 8.03152 6.20148 7.80207 6.35086L7.80201 6.3509M9.22983 6.29929L7.80201 6.3509M7.80201 6.3509C7.66154 6.4425 7.49714 6.54851 7.31354 6.66582C7.16606 6.75979 6.96178 6.85049 6.70335 6.93396L6.7033 6.93398M7.80201 6.3509L6.7033 6.93398M6.7033 6.93398C6.45613 7.01396 6.20595 7.05428 5.95963 7.05428C5.71351 7.05428 5.46331 7.01396 5.21594 6.93397L5.21591 6.93396M6.7033 6.93398L5.21591 6.93396M5.21591 6.93396C4.95774 6.85057 4.75341 6.75988 4.60625 6.66596M5.21591 6.93396L4.60625 6.66596M1.9784 6.74666L1.9784 6.74666C2.17529 6.55826 2.415 6.40814 2.68967 6.29939L1.9784 6.74666ZM1.9784 6.74666C1.79231 6.92472 1.62758 7.13983 1.48816 7.38531M1.9784 6.74666L1.16647 8.11534M1.16647 8.11534L1.16648 8.11532C1.2463 7.86598 1.3546 7.62043 1.48816 7.38531M1.16647 8.11534C1.09001 8.35446 1.02629 8.61521 0.976896 8.89039L1.16647 8.11534ZM1.48816 7.38531L1.57511 7.43471L1.48816 7.38532C1.48816 7.38532 1.48816 7.38532 1.48816 7.38531ZM1.47697 11.9552L1.47694 11.9552C1.06133 11.5593 0.854102 11.0244 0.854102 10.3752C0.854102 10.1321 0.86223 9.89128 0.878327 9.65971L1.47697 11.9552ZM9.82019 11.3008L9.8202 11.3008C10.047 11.085 10.1626 10.7875 10.1627 10.3753C10.1626 10.1519 10.1551 9.93234 10.1404 9.72251L10.1404 9.72222L10.1399 9.71549H10.1399C10.1256 9.51274 10.0966 9.28887 10.0538 9.04984C10.0113 8.81275 9.95708 8.59097 9.89295 8.39062C9.83235 8.20129 9.74932 8.01307 9.6461 7.83159L9.64608 7.83155C9.54863 7.66002 9.43755 7.51488 9.31664 7.39921L9.38577 7.32695L9.31664 7.3992C9.2067 7.29402 9.0662 7.20596 8.89744 7.13914C8.75115 7.08127 8.58586 7.04765 8.4044 7.04018C8.38052 7.05379 8.34515 7.07506 8.29524 7.10754L8.2407 7.02372M9.82019 11.3008L6.98119 7.79344C7.30644 7.68834 7.58226 7.56566 7.79943 7.4272L7.79952 7.42714C7.9882 7.30654 8.15043 7.202 8.29533 7.10748L8.2407 7.02372M9.82019 11.3008C9.58694 11.5228 9.27382 11.6357 8.84898 11.6357H3.07092C2.64599 11.6357 2.33287 11.5228 2.09972 11.3009C1.8729 11.085 1.75733 10.7874 1.75733 10.3752C1.75733 10.1525 1.76467 9.93284 1.77933 9.72216L1.77934 9.72212M9.82019 11.3008L1.77934 9.72212M8.2407 7.02372C8.31175 6.97749 8.3556 6.9524 8.38023 6.93931M8.2407 7.02372L8.38023 6.93931M8.38023 6.93931C8.58238 6.94471 8.76851 6.9806 8.93422 7.04615L8.38023 6.93931ZM1.77934 9.72212C1.79351 9.51721 1.82256 9.29115 1.86589 9.05L1.86589 9.05M1.77934 9.72212L1.86589 9.05M1.86589 9.05C1.90853 8.81266 1.96265 8.59078 2.02667 8.39073C2.08737 8.20121 2.17032 8.01307 2.27344 7.8315C2.3709 7.66013 2.48199 7.51496 2.60293 7.39918L2.60293 7.39918M1.86589 9.05L2.60293 7.39918M2.60293 7.39918C2.71284 7.29394 2.85332 7.20596 3.0222 7.13914L3.02221 7.13913M2.60293 7.39918L3.02221 7.13913M3.02221 7.13913C3.16841 7.08127 3.33369 7.04765 3.51507 7.04018C3.53897 7.05378 3.57431 7.075 3.62413 7.10749L3.62415 7.1075M3.02221 7.13913L3.62415 7.1075M3.62415 7.1075C3.769 7.2019 3.93589 7.30955 4.12032 7.42734L4.12039 7.42738M3.62415 7.1075L4.12039 7.42738M4.12039 7.42738C4.33727 7.56566 4.61317 7.68843 4.93816 7.79335L4.12039 7.42738ZM4.60625 6.66596C4.42435 6.54972 4.25983 6.44369 4.11723 6.35079C3.88794 6.20139 3.74759 6.13535 3.59305 6.13535C3.26973 6.13535 2.96558 6.19011 2.68968 6.29939L4.60625 6.66596ZM0.976892 8.89042C0.928014 9.1624 0.894821 9.42117 0.878329 9.65967L0.976892 8.89042ZM4.9382 7.79336C5.27448 7.90209 5.61809 7.9575 5.95972 7.9575C6.30136 7.9575 6.64507 7.90209 6.98118 7.79345L4.9382 7.79336Z" fill="#3F3F3F" stroke="#3F3F3F" stroke-width="0.2"/>
</svg>
