<svg width="16" height="11" viewBox="0 0 16 11" fill="none" xmlns="http://www.w3.org/2000/svg">
<path d="M8.27572 0.664062C4.94238 0.664062 2.09572 2.7374 0.942383 5.66406C2.09572 8.59073 4.94238 10.6641 8.27572 10.6641C11.609 10.6641 14.4557 8.59073 15.609 5.66406C14.4557 2.7374 11.609 0.664062 8.27572 0.664062ZM8.27572 8.9974C6.43572 8.9974 4.94238 7.50406 4.94238 5.66406C4.94238 3.82406 6.43572 2.33073 8.27572 2.33073C10.1157 2.33073 11.609 3.82406 11.609 5.66406C11.609 7.50406 10.1157 8.9974 8.27572 8.9974ZM8.27572 3.66406C7.16905 3.66406 6.27572 4.5574 6.27572 5.66406C6.27572 6.77073 7.16905 7.66406 8.27572 7.66406C9.38238 7.66406 10.2757 6.77073 10.2757 5.66406C10.2757 4.5574 9.38238 3.66406 8.27572 3.66406Z" fill="#C3CAD9"/>
</svg>
