<svg width="8" height="8" viewBox="0 0 8 8" fill="none" xmlns="http://www.w3.org/2000/svg">
<g clip-path="url(#clip0_261_3216)">
<path d="M6.62979 3.58675L4.10196 3.59439V1.1163C4.10196 0.900383 3.92814 0.726562 3.71222 0.726562C3.49636 0.726562 3.32247 0.900383 3.32247 1.1163L3.33012 3.58682H0.909273C0.693352 3.58682 0.519531 3.76064 0.519531 3.97656C0.519531 4.19241 0.693352 4.36623 0.909273 4.36623H3.3263V6.83682C3.3263 7.0526 3.50012 7.22656 3.71604 7.22656C3.93196 7.22656 4.10578 7.0526 4.10578 6.83682V4.3663H6.62979C6.84571 4.3663 7.01953 4.19234 7.01953 3.97656C7.01953 3.76057 6.84377 3.58675 6.62979 3.58675Z" fill="white"/>
</g>
<defs>
<clipPath id="clip0_261_3216">
<rect width="6.5" height="6.5" fill="white" transform="translate(0.519531 0.726562)"/>
</clipPath>
</defs>
</svg>
